# Exported from Wings 3D 2.2.9
mtllib ./keyBlack.mtl
o keyBlack
#38 vertices, 40 faces
v -0.43000000 2.03000000 5.00000000
v -0.43000000 7.0000000e-2 5.00000000
v 0.43000000 7.0000000e-2 5.00000000
v 0.43000000 2.03000000 5.00000000
v 0.35225233 2.93108062 -4.93000000
v 0.35225233 2.93108062 3.97282715
v 0.48774767 2.16891938 4.81967298
v 0.48774767 2.16891938 -4.93000000
v 0.50000000 7.0000000e-2 4.93000000
v 0.50000000 7.0000000e-2 -4.93000000
v 0.50000000 2.03000000 -4.93000000
v 0.50000000 2.03000000 4.93000000
v -0.27000000 3.00000000 -4.93000000
v -0.27000000 3.00000000 3.93000000
v 0.27000000 3.00000000 3.93000000
v 0.27000000 3.00000000 -4.93000000
v -0.42118182 2.14682753 4.94796941
v 0.42118182 2.14682753 4.94796941
v 0.27783160 2.95317247 4.05203059
v -0.27783160 2.95317247 4.05203059
v -0.43000000 2.09382618 -5.00000000
v -0.28134688 2.93000000 -5.00000000
v 0.28134688 2.93000000 -5.00000000
v 0.43000000 2.09382618 -5.00000000
v 0.43000000 7.0000000e-2 -5.00000000
v -0.43000000 7.0000000e-2 -5.00000000
v -0.50000000 7.0000000e-2 -4.93000000
v -0.50000000 7.0000000e-2 4.93000000
v -0.50000000 2.03000000 4.93000000
v -0.50000000 2.03000000 -4.93000000
v -0.43000000 0.0000000e+0 4.93000000
v -0.43000000 0.0000000e+0 -4.93000000
v 0.43000000 0.0000000e+0 -4.93000000
v 0.43000000 0.0000000e+0 4.93000000
v -0.35225233 2.93108062 3.97282715
v -0.35225233 2.93108062 -4.93000000
v -0.48774767 2.16891938 -4.93000000
v -0.48774767 2.16891938 4.81967298
vn -0.40213656 0.22806012 0.88672136
vn -0.36700100 -0.36700100 0.85476344
vn 0.36700100 -0.36700100 0.85476344
vn 0.40213656 0.22806012 0.88672136
vn 0.80332219 0.47897368 -0.35391760
vn 0.75228900 0.63012261 0.19237139
vn 0.90088061 0.34313036 0.26584897
vn 0.91988814 0.12173083 -0.37281017
vn 0.85476344 -0.36700100 0.36700100
vn 0.85476344 -0.36700100 -0.36700100
vn 0.92699432 4.1159475e-2 -0.37281017
vn 0.93065980 0.13445863 0.34028403
vn -0.33097137 0.87475727 -0.35391760
vn -0.31278057 0.93472036 0.16871920
vn 0.31278057 0.93472036 0.16871920
vn 0.33097137 0.87475727 -0.35391760
vn -0.38035427 0.59575056 0.70739798
vn 0.38035427 0.59575056 0.70739798
vn 0.31660073 0.82584221 0.46663542
vn -0.31660073 0.82584221 0.46663542
vn -0.56828354 5.0121154e-2 -0.82130487
vn -0.34867417 0.41612774 -0.83979999
vn 0.34867417 0.41612774 -0.83979999
vn 0.56828354 5.0121154e-2 -0.82130487
vn 0.36700100 -0.36700100 -0.85476344
vn -0.36700100 -0.36700100 -0.85476344
vn -0.85476344 -0.36700100 -0.36700100
vn -0.85476344 -0.36700100 0.36700100
vn -0.93065980 0.13445863 0.34028403
vn -0.92699432 4.1159475e-2 -0.37281017
vn -0.36700100 -0.85476344 0.36700100
vn -0.36700100 -0.85476344 -0.36700100
vn 0.36700100 -0.85476344 -0.36700100
vn 0.36700100 -0.85476344 0.36700100
vn -0.75228900 0.63012261 0.19237139
vn -0.80332219 0.47897368 -0.35391760
vn -0.91988814 0.12173083 -0.37281017
vn -0.90088061 0.34313036 0.26584897
g keyBlack_default
usemtl default
s 1
f 1//1 29//29 28//28 2//2
f 2//2 3//3 4//4 1//1
f 2//2 31//31 34//34 3//3
f 3//3 9//9 12//12 4//4
f 4//4 18//18 17//17 1//1
f 5//5 16//16 15//15 6//6
f 6//6 7//7 8//8 5//5
f 6//6 19//19 18//18 7//7
f 7//7 12//12 11//11 8//8
f 8//8 24//24 23//23 5//5
f 9//9 34//34 33//33 10//10
f 10//10 11//11 12//12 9//9
f 10//10 25//25 24//24 11//11
f 11//11 24//24 8//8
f 12//12 7//7 18//18 4//4
f 13//13 36//36 35//35 14//14
f 14//14 15//15 16//16 13//13
f 14//14 20//20 19//19 15//15
f 15//15 19//19 6//6
f 16//16 23//23 22//22 13//13
f 17//17 38//38 29//29 1//1
f 18//18 19//19 20//20 17//17
f 20//20 35//35 38//38 17//17
f 21//21 37//37 36//36 22//22
f 22//22 23//23 24//24 25//25 26//26 21//21
f 22//22 36//36 13//13
f 23//23 16//16 5//5
f 25//25 33//33 32//32 26//26
f 26//26 27//27 30//30 21//21
f 27//27 26//26 32//32
f 27//27 32//32 31//31 28//28
f 28//28 29//29 30//30 27//27
f 28//28 31//31 2//2
f 29//29 38//38 37//37 30//30
f 30//30 37//37 21//21
f 32//32 33//33 34//34 31//31
f 33//33 25//25 10//10
f 34//34 9//9 3//3
f 35//35 20//20 14//14
f 36//36 37//37 38//38 35//35
