# Exported from Wings 3D 2.2.9
mtllib ./keyDoubleIndent.mtl
o keyDoubleIndent
#96 vertices, 98 faces
v 0.43000000 0.0000000e+0 2.57000000
v 0.93000000 0.0000000e+0 2.57000000
v 0.93000000 0.0000000e+0 7.43000000
v -0.93000000 0.0000000e+0 7.43000000
v -0.93000000 0.0000000e+0 2.57000000
v -0.43000000 0.0000000e+0 2.57000000
v -0.43000000 0.0000000e+0 -7.43000000
v 0.43000000 0.0000000e+0 -7.43000000
v -0.50000000 1.87000000 -7.43000000
v -0.50000000 1.87000000 2.43000000
v -0.50000000 1.93000000 2.43000000
v -0.50000000 1.93000000 -7.43000000
v -0.50000000 1.73000000 2.43000000
v -0.50000000 1.73000000 -7.43000000
v -0.50000000 7.0000000e-2 -7.43000000
v -0.50000000 7.0000000e-2 2.43000000
v 0.93000000 1.80000000 7.68000000
v -0.93000000 1.80000000 7.68000000
v -0.93000000 1.80000000 7.57000000
v 0.93000000 1.80000000 7.57000000
v -0.43000000 1.73000000 -7.50000000
v 0.43000000 1.73000000 -7.50000000
v 0.43000000 7.0000000e-2 -7.50000000
v -0.43000000 7.0000000e-2 -7.50000000
v 0.50000000 1.73000000 -7.43000000
v 0.50000000 1.73000000 2.43000000
v 0.50000000 7.0000000e-2 2.43000000
v 0.50000000 7.0000000e-2 -7.43000000
v -1.00000000 1.87000000 2.57000000
v -1.00000000 1.87000000 7.43000000
v -1.00000000 1.93000000 7.43000000
v -1.00000000 1.93000000 2.57000000
v 0.50000000 1.87000000 2.43000000
v 0.50000000 1.87000000 -7.43000000
v 0.50000000 1.93000000 -7.43000000
v 0.50000000 1.93000000 2.43000000
v -0.93000000 2.00000000 7.43000000
v 0.93000000 2.00000000 7.43000000
v 0.93000000 2.00000000 2.57000000
v 0.43000000 2.00000000 2.57000000
v 0.43000000 2.00000000 -7.43000000
v -0.43000000 2.00000000 -7.43000000
v -0.43000000 2.00000000 2.57000000
v -0.93000000 2.00000000 2.57000000
v 0.43000000 1.87000000 -7.50000000
v -0.43000000 1.87000000 -7.50000000
v -0.43000000 1.93000000 -7.50000000
v 0.43000000 1.93000000 -7.50000000
v 0.93000000 1.87000000 2.50000000
v 0.57000000 1.87000000 2.50000000
v 0.57000000 1.93000000 2.50000000
v 0.93000000 1.93000000 2.50000000
v 0.93000000 1.73000000 7.50000000
v -0.93000000 1.73000000 7.50000000
v -0.93000000 7.0000000e-2 7.50000000
v 0.93000000 7.0000000e-2 7.50000000
v -0.93000000 1.73000000 2.50000000
v -0.57000000 1.73000000 2.50000000
v -0.57000000 7.0000000e-2 2.50000000
v -0.93000000 7.0000000e-2 2.50000000
v -1.00000000 1.87000000 7.68000000
v -1.00000000 1.93000000 7.68000000
v -1.00000000 1.93000000 7.57000000
v -1.00000000 1.87000000 7.57000000
v -0.57000000 1.87000000 2.50000000
v -0.93000000 1.87000000 2.50000000
v -0.93000000 1.93000000 2.50000000
v -0.57000000 1.93000000 2.50000000
v 1.00000000 1.93000000 7.68000000
v 1.00000000 1.87000000 7.68000000
v 1.00000000 1.87000000 7.57000000
v 1.00000000 1.93000000 7.57000000
v 1.00000000 1.87000000 7.43000000
v 1.00000000 1.87000000 2.57000000
v 1.00000000 1.93000000 2.57000000
v 1.00000000 1.93000000 7.43000000
v 0.57000000 1.73000000 2.50000000
v 0.93000000 1.73000000 2.50000000
v 0.93000000 7.0000000e-2 2.50000000
v 0.57000000 7.0000000e-2 2.50000000
v -0.93000000 1.87000000 7.75000000
v 0.93000000 1.87000000 7.75000000
v 0.93000000 1.93000000 7.75000000
v -0.93000000 1.93000000 7.75000000
v -1.00000000 1.73000000 7.43000000
v -1.00000000 1.73000000 2.57000000
v -1.00000000 7.0000000e-2 2.57000000
v -1.00000000 7.0000000e-2 7.43000000
v 1.00000000 1.73000000 2.57000000
v 1.00000000 1.73000000 7.43000000
v 1.00000000 7.0000000e-2 7.43000000
v 1.00000000 7.0000000e-2 2.57000000
v -0.93000000 2.00000000 7.68000000
v 0.93000000 2.00000000 7.68000000
v 0.93000000 2.00000000 7.57000000
v -0.93000000 2.00000000 7.57000000
vn 0.27921776 -0.91873548 -0.27921776
vn 0.36700100 -0.85476344 -0.36700100
vn 0.36700100 -0.85476344 0.36700100
vn -0.36700100 -0.85476344 0.36700100
vn -0.36700100 -0.85476344 -0.36700100
vn -0.27921776 -0.91873548 -0.27921776
vn -0.36700100 -0.85476344 -0.36700100
vn 0.36700100 -0.85476344 -0.36700100
vn -0.92387953 0.0000000e+0 -0.38268343
vn -0.92387953 0.0000000e+0 -0.38268343
vn -0.81919959 0.48615215 -0.30425009
vn -0.85476344 0.36700100 -0.36700100
vn -0.92387953 0.0000000e+0 -0.38268343
vn -0.92387953 0.0000000e+0 -0.38268343
vn -0.85476344 -0.36700100 -0.36700100
vn -0.81919959 -0.48615215 -0.30425009
vn 0.36700100 -0.85476344 0.36700100
vn -0.36700100 -0.85476344 0.36700100
vn -0.46422399 -0.82627132 0.31901693
vn 0.46422399 -0.82627132 0.31901693
vn -0.38268343 0.0000000e+0 -0.92387953
vn 0.38268343 0.0000000e+0 -0.92387953
vn 0.36700100 -0.36700100 -0.85476344
vn -0.36700100 -0.36700100 -0.85476344
vn 0.92387953 0.0000000e+0 -0.38268343
vn 0.92387953 0.0000000e+0 -0.38268343
vn 0.81919959 -0.48615215 -0.30425009
vn 0.85476344 -0.36700100 -0.36700100
vn -0.92387953 0.0000000e+0 -0.38268343
vn -0.99108262 -9.4221142e-2 9.4221142e-2
vn -0.92387953 0.38268343 0.0000000e+0
vn -0.85476344 0.36700100 -0.36700100
vn 0.92387953 0.0000000e+0 -0.38268343
vn 0.92387953 0.0000000e+0 -0.38268343
vn 0.85476344 0.36700100 -0.36700100
vn 0.81919959 0.48615215 -0.30425009
vn -0.38268343 0.92387953 0.0000000e+0
vn 0.38268343 0.92387953 0.0000000e+0
vn 0.36700100 0.85476344 -0.36700100
vn 0.27921776 0.91873548 -0.27921776
vn 0.36700100 0.85476344 -0.36700100
vn -0.36700100 0.85476344 -0.36700100
vn -0.27921776 0.91873548 -0.27921776
vn -0.36700100 0.85476344 -0.36700100
vn 0.38268343 0.0000000e+0 -0.92387953
vn -0.38268343 0.0000000e+0 -0.92387953
vn -0.36700100 0.36700100 -0.85476344
vn 0.36700100 0.36700100 -0.85476344
vn 0.38268343 0.0000000e+0 -0.92387953
vn 0.38268343 0.0000000e+0 -0.92387953
vn 0.30425009 0.48615215 -0.81919959
vn 0.36700100 0.36700100 -0.85476344
vn 0.46422399 -0.31901693 0.82627132
vn -0.46422399 -0.31901693 0.82627132
vn -0.36700100 -0.36700100 0.85476344
vn 0.36700100 -0.36700100 0.85476344
vn -0.38268343 0.0000000e+0 -0.92387953
vn -0.38268343 0.0000000e+0 -0.92387953
vn -0.30425009 -0.48615215 -0.81919959
vn -0.36700100 -0.36700100 -0.85476344
vn -0.85476344 -0.36700100 0.36700100
vn -0.85476344 0.36700100 0.36700100
vn -0.92387953 0.38268343 0.0000000e+0
vn -0.95284896 -0.28717264 9.8034355e-2
vn -0.38268343 0.0000000e+0 -0.92387953
vn -0.38268343 0.0000000e+0 -0.92387953
vn -0.36700100 0.36700100 -0.85476344
vn -0.30425009 0.48615215 -0.81919959
vn 0.85476344 0.36700100 0.36700100
vn 0.85476344 -0.36700100 0.36700100
vn 0.95284896 -0.28717264 9.8034355e-2
vn 0.92387953 0.38268343 0.0000000e+0
vn 0.99108262 -9.4221142e-2 9.4221142e-2
vn 0.92387953 0.0000000e+0 -0.38268343
vn 0.85476344 0.36700100 -0.36700100
vn 0.92387953 0.38268343 0.0000000e+0
vn 0.38268343 0.0000000e+0 -0.92387953
vn 0.38268343 0.0000000e+0 -0.92387953
vn 0.36700100 -0.36700100 -0.85476344
vn 0.30425009 -0.48615215 -0.81919959
vn -0.36700100 -0.36700100 0.85476344
vn 0.36700100 -0.36700100 0.85476344
vn 0.36700100 0.36700100 0.85476344
vn -0.36700100 0.36700100 0.85476344
vn -0.95284896 -9.8034355e-2 0.28717264
vn -0.92387953 0.0000000e+0 -0.38268343
vn -0.85476344 -0.36700100 -0.36700100
vn -0.85476344 -0.36700100 0.36700100
vn 0.92387953 0.0000000e+0 -0.38268343
vn 0.95284896 -9.8034355e-2 0.28717264
vn 0.85476344 -0.36700100 0.36700100
vn 0.85476344 -0.36700100 -0.36700100
vn -0.36700100 0.85476344 0.36700100
vn 0.36700100 0.85476344 0.36700100
vn 0.38268343 0.92387953 0.0000000e+0
vn -0.38268343 0.92387953 0.0000000e+0
g keyDoubleIndent_default
usemtl default
s 1
f 1//1 80//80 79//79 2//2
f 2//2 3//3 4//4 5//5 6//6 7//7 8//8 1//1
f 2//2 92//92 91//91 3//3
f 3//3 56//56 55//55 4//4
f 4//4 88//88 87//87 5//5
f 5//5 60//60 59//59 6//6
f 6//6 16//16 15//15 7//7
f 7//7 24//24 23//23 8//8
f 8//8 28//28 27//27 1//1
f 9//9 14//14 13//13 10//10
f 10//10 11//11 12//12 9//9
f 10//10 65//65 68//68 11//11
f 11//11 43//43 42//42 12//12
f 12//12 47//47 46//46 9//9
f 13//13 58//58 65//65 10//10
f 14//14 15//15 16//16 13//13
f 14//14 21//21 24//24 15//15
f 15//15 24//24 7//7
f 16//16 59//59 58//58 13//13
f 17//17 82//82 81//81 18//18
f 18//18 19//19 20//20 17//17
f 18//18 61//61 64//64 19//19
f 19//19 54//54 53//53 20//20
f 20//20 71//71 70//70 17//17
f 21//21 46//46 45//45 22//22
f 22//22 23//23 24//24 21//21
f 22//22 25//25 28//28 23//23
f 23//23 28//28 8//8
f 25//25 34//34 33//33 26//26
f 26//26 27//27 28//28 25//25
f 26//26 77//77 80//80 27//27
f 27//27 80//80 1//1
f 29//29 86//86 85//85 30//30
f 30//30 31//31 32//32 29//29
f 30//30 64//64 63//63 31//31
f 31//31 37//37 44//44 32//32
f 32//32 67//67 66//66 29//29
f 33//33 50//50 77//77 26//26
f 34//34 35//35 36//36 33//33
f 34//34 45//45 48//48 35//35
f 35//35 41//41 40//40 36//36
f 36//36 51//51 50//50 33//33
f 37//37 96//96 95//95 38//38
f 38//38 39//39 40//40 41//41 42//42 43//43 44//44 37//37
f 38//38 76//76 75//75 39//39
f 39//39 52//52 51//51 40//40
f 40//40 51//51 36//36
f 41//41 48//48 47//47 42//42
f 42//42 47//47 12//12
f 43//43 68//68 67//67 44//44
f 44//44 67//67 32//32
f 45//45 34//34 25//25 22//22
f 46//46 21//21 14//14 9//9
f 46//46 47//47 48//48 45//45
f 48//48 41//41 35//35
f 49//49 78//78 77//77 50//50
f 50//50 51//51 52//52 49//49
f 52//52 75//75 74//74 49//49
f 53//53 90//90 73//73 71//71 20//20
f 54//54 55//55 56//56 53//53
f 54//54 85//85 88//88 55//55
f 55//55 88//88 4//4
f 56//56 91//91 90//90 53//53
f 57//57 66//66 65//65 58//58
f 58//58 59//59 60//60 57//57
f 59//59 16//16 6//6
f 60//60 87//87 86//86 57//57
f 61//61 81//81 84//84 62//62
f 62//62 63//63 64//64 61//61
f 62//62 93//93 96//96 63//63
f 63//63 96//96 37//37 31//31
f 64//64 30//30 85//85 54//54 19//19
f 66//66 57//57 86//86 29//29
f 66//66 67//67 68//68 65//65
f 68//68 43//43 11//11
f 69//69 83//83 82//82 70//70
f 70//70 71//71 72//72 69//69
f 70//70 82//82 17//17
f 71//71 73//73 76//76 72//72
f 72//72 95//95 94//94 69//69
f 73//73 90//90 89//89 74//74
f 74//74 75//75 76//76 73//73
f 74//74 89//89 78//78 49//49
f 75//75 52//52 39//39
f 78//78 79//79 80//80 77//77
f 78//78 89//89 92//92 79//79
f 79//79 92//92 2//2
f 81//81 61//61 18//18
f 82//82 83//83 84//84 81//81
f 83//83 94//94 93//93 84//84
f 84//84 93//93 62//62
f 86//86 87//87 88//88 85//85
f 87//87 60//60 5//5
f 90//90 91//91 92//92 89//89
f 91//91 56//56 3//3
f 94//94 83//83 69//69
f 94//94 95//95 96//96 93//93
f 95//95 72//72 76//76 38//38
