# Exported from Wings 3D 2.2.9
mtllib ./keyLeftIndent.mtl
o keyLeftIndent
#58 vertices, 60 faces
v 0.93000000 0.0000000e+0 -7.43000000
v 0.93000000 0.0000000e+0 7.43000000
v -0.93000000 0.0000000e+0 7.43000000
v -0.93000000 0.0000000e+0 2.57000000
v -0.43000000 0.0000000e+0 2.57000000
v -0.43000000 0.0000000e+0 -7.43000000
v 0.93000000 2.00000000 7.57000000
v -0.93000000 2.00000000 7.57000000
v -0.93000000 2.00000000 7.68000000
v 0.93000000 2.00000000 7.68000000
v 1.00000000 7.0000000e-2 7.43000000
v 1.00000000 7.0000000e-2 -7.43000000
v 1.00000000 1.93000000 -7.43000000
v 1.00000000 1.93000000 7.43000000
v 1.00000000 1.80000000 7.43000000
v -0.93000000 7.0000000e-2 7.50000000
v 0.93000000 7.0000000e-2 7.50000000
v 0.93000000 1.73000000 7.50000000
v -0.93000000 1.73000000 7.50000000
v 0.93000000 1.93000000 -7.50000000
v 0.93000000 7.0000000e-2 -7.50000000
v -0.43000000 7.0000000e-2 -7.50000000
v -0.43000000 1.93000000 -7.50000000
v -0.93000000 1.87000000 7.75000000
v 0.93000000 1.87000000 7.75000000
v 0.93000000 1.93000000 7.75000000
v -0.93000000 1.93000000 7.75000000
v -0.50000000 1.93000000 -7.43000000
v -0.50000000 7.0000000e-2 -7.43000000
v -0.50000000 7.0000000e-2 2.43000000
v -0.50000000 1.93000000 2.43000000
v 0.93000000 2.00000000 7.43000000
v 0.93000000 2.00000000 -7.43000000
v -0.43000000 2.00000000 -7.43000000
v -0.43000000 2.00000000 2.57000000
v -0.93000000 2.00000000 2.57000000
v -0.93000000 2.00000000 7.43000000
v -1.00000000 1.93000000 7.57000000
v -1.00000000 1.87000000 7.57000000
v -1.00000000 1.87000000 7.68000000
v -1.00000000 1.93000000 7.68000000
v 1.00000000 1.87000000 7.57000000
v 1.00000000 1.93000000 7.57000000
v 1.00000000 1.93000000 7.68000000
v 1.00000000 1.87000000 7.68000000
v -1.00000000 7.0000000e-2 2.57000000
v -1.00000000 7.0000000e-2 7.43000000
v -1.00000000 1.80000000 7.43000000
v -1.00000000 1.93000000 7.43000000
v -1.00000000 1.93000000 2.57000000
v -0.93000000 7.0000000e-2 2.50000000
v -0.93000000 1.93000000 2.50000000
v -0.57000000 1.93000000 2.50000000
v -0.57000000 7.0000000e-2 2.50000000
v -0.93000000 1.80000000 7.57000000
v 0.93000000 1.80000000 7.57000000
v 0.93000000 1.80000000 7.68000000
v -0.93000000 1.80000000 7.68000000
vn 0.36700100 -0.85476344 -0.36700100
vn 0.36700100 -0.85476344 0.36700100
vn -0.36700100 -0.85476344 0.36700100
vn -0.36700100 -0.85476344 -0.36700100
vn -0.27921776 -0.91873548 -0.27921776
vn -0.36700100 -0.85476344 -0.36700100
vn 0.38268343 0.92387953 0.0000000e+0
vn -0.38268343 0.92387953 0.0000000e+0
vn -0.36700100 0.85476344 0.36700100
vn 0.36700100 0.85476344 0.36700100
vn 0.85476344 -0.36700100 0.36700100
vn 0.85476344 -0.36700100 -0.36700100
vn 0.85476344 0.36700100 -0.36700100
vn 0.92387953 0.38268343 0.0000000e+0
vn 0.94330989 -0.15232516 0.29489574
vn -0.36700100 -0.36700100 0.85476344
vn 0.36700100 -0.36700100 0.85476344
vn 0.42829513 -0.37344096 0.82286398
vn -0.42829513 -0.37344096 0.82286398
vn 0.36700100 0.36700100 -0.85476344
vn 0.36700100 -0.36700100 -0.85476344
vn -0.36700100 -0.36700100 -0.85476344
vn -0.36700100 0.36700100 -0.85476344
vn -0.36700100 -0.36700100 0.85476344
vn 0.36700100 -0.36700100 0.85476344
vn 0.36700100 0.36700100 0.85476344
vn -0.36700100 0.36700100 0.85476344
vn -0.85476344 0.36700100 -0.36700100
vn -0.85476344 -0.36700100 -0.36700100
vn -0.81919959 -0.48615215 -0.30425009
vn -0.81919959 0.48615215 -0.30425009
vn 0.38268343 0.92387953 0.0000000e+0
vn 0.36700100 0.85476344 -0.36700100
vn -0.36700100 0.85476344 -0.36700100
vn -0.27921776 0.91873548 -0.27921776
vn -0.36700100 0.85476344 -0.36700100
vn -0.38268343 0.92387953 0.0000000e+0
vn -0.92387953 0.38268343 0.0000000e+0
vn -0.93418347 -0.34232646 0.10056762
vn -0.85476344 -0.36700100 0.36700100
vn -0.85476344 0.36700100 0.36700100
vn 0.93418347 -0.34232646 0.10056762
vn 0.92387953 0.38268343 0.0000000e+0
vn 0.85476344 0.36700100 0.36700100
vn 0.85476344 -0.36700100 0.36700100
vn -0.85476344 -0.36700100 -0.36700100
vn -0.85476344 -0.36700100 0.36700100
vn -0.94330989 -0.15232516 0.29489574
vn -0.92387953 0.38268343 0.0000000e+0
vn -0.85476344 0.36700100 -0.36700100
vn -0.36700100 -0.36700100 -0.85476344
vn -0.36700100 0.36700100 -0.85476344
vn -0.30425009 0.48615215 -0.81919959
vn -0.30425009 -0.48615215 -0.81919959
vn -0.41691771 -0.85440207 0.31012371
vn 0.41691771 -0.85440207 0.31012371
vn 0.36700100 -0.85476344 0.36700100
vn -0.36700100 -0.85476344 0.36700100
g keyLeftIndent_default
usemtl default
s 1
f 1//1 12//12 11//11 2//2
f 2//2 3//3 4//4 5//5 6//6 1//1
f 2//2 17//17 16//16 3//3
f 3//3 47//47 46//46 4//4
f 4//4 51//51 54//54 5//5
f 5//5 30//30 29//29 6//6
f 6//6 22//22 21//21 1//1
f 7//7 32//32 37//37 8//8
f 8//8 9//9 10//10 7//7
f 8//8 38//38 41//41 9//9
f 9//9 27//27 26//26 10//10
f 10//10 44//44 43//43 7//7
f 11//11 17//17 2//2
f 12//12 1//1 21//21
f 12//12 13//13 14//14 15//15 11//11
f 12//12 21//21 20//20 13//13
f 13//13 33//33 32//32 14//14
f 14//14 43//43 42//42 15//15
f 15//15 18//18 17//17 11//11
f 16//16 47//47 3//3
f 17//17 18//18 19//19 16//16
f 18//18 56//56 55//55 19//19
f 19//19 48//48 47//47 16//16
f 20//20 33//33 13//13
f 21//21 22//22 23//23 20//20
f 22//22 29//29 28//28 23//23
f 23//23 34//34 33//33 20//20
f 24//24 58//58 57//57 25//25
f 25//25 26//26 27//27 24//24
f 25//25 45//45 44//44 26//26
f 26//26 44//44 10//10
f 27//27 41//41 40//40 24//24
f 28//28 34//34 23//23
f 29//29 22//22 6//6
f 29//29 30//30 31//31 28//28
f 30//30 54//54 53//53 31//31
f 31//31 35//35 34//34 28//28
f 33//33 34//34 35//35 36//36 37//37 32//32
f 35//35 53//53 52//52 36//36
f 36//36 50//50 49//49 37//37
f 37//37 49//49 38//38 8//8
f 38//38 49//49 48//48 39//39
f 39//39 40//40 41//41 38//38
f 39//39 55//55 58//58 40//40
f 40//40 58//58 24//24
f 41//41 27//27 9//9
f 42//42 56//56 18//18 15//15
f 43//43 14//14 32//32 7//7
f 43//43 44//44 45//45 42//42
f 45//45 57//57 56//56 42//42
f 46//46 51//51 4//4
f 47//47 48//48 49//49 50//50 46//46
f 50//50 52//52 51//51 46//46
f 52//52 50//50 36//36
f 52//52 53//53 54//54 51//51
f 53//53 35//35 31//31
f 54//54 30//30 5//5
f 55//55 39//39 48//48 19//19
f 56//56 57//57 58//58 55//55
f 57//57 45//45 25//25
